<?xml version="1.0" encoding="utf-8"?><svg xmlns="http://www.w3.org/2000/svg" xmlns:xlink="http://www.w3.org/1999/xlink" width="394" height="394" preserveAspectRatio="xMidYMid" viewBox="0 0 394 394" style="display:block;background-repeat-y:initial;background-repeat-x:initial;animation-play-state:paused" ><g transform="scale(1.54)" style="transform:matrix(1.54, 0, 0, 1.54, 0, 0);animation-play-state:paused" ><defs style="animation-play-state:paused" ><g id="trianglify-0.4019822547715779" style="animation-play-state:paused" ><path d="M -26.67420161069431 76.45229377397857  L -16.885623009007674 29.586930089397654  L -97.87179879058289 7.783447997279048 Z" stroke-width="0" fill="rgb(246, 246, 246)" style="animation-play-state:paused" ></path>
<path d="M -97.87179879058289 7.783447997279048  L -118.95699780788844 83.51078499205944  L -26.67420161069431 76.45229377397857 Z" stroke-width="0" fill="rgb(232, 232, 232)" style="animation-play-state:paused" ></path>
<path d="M 42.63258371422839 121.44156481428669  L 59.97593244748904 8.546896815274712  L -16.885623009007674 29.586930089397654 Z" stroke-width="0" fill="rgb(211, 211, 211)" style="animation-play-state:paused" ></path>
<path d="M -16.885623009007674 29.586930089397654  L 19.68802688963666 -58.15165166396531  L -97.87179879058289 7.783447997279048 Z" stroke-width="0" fill="rgb(211, 211, 211)" style="animation-play-state:paused" ></path>
<path d="M -0.6156157955832953 167.69193179768982  L 42.63258371422839 121.44156481428669  L -26.67420161069431 76.45229377397857 Z" stroke-width="0" fill="rgb(195, 195, 195)" style="animation-play-state:paused" ></path>
<path d="M -26.67420161069431 76.45229377397857  L 42.63258371422839 121.44156481428669  L -16.885623009007674 29.586930089397654 Z" stroke-width="0" fill="rgb(171, 171, 171)" style="animation-play-state:paused" ></path>
<path d="M 59.97593244748904 8.546896815274712  L 19.68802688963666 -58.15165166396531  L -16.885623009007674 29.586930089397654 Z" stroke-width="0" fill="rgb(195, 195, 195)" style="animation-play-state:paused" ></path>
<path d="M -144.5103842751933 -96.52574946746546  L -196.02406755251096 8.546896815274712  L -97.87179879058289 7.783447997279048 Z" stroke-width="0" fill="rgb(246, 246, 246)" style="animation-play-state:paused" ></path>
<path d="M -97.87179879058289 7.783447997279048  L -196.02406755251096 8.546896815274712  L -118.95699780788844 83.51078499205944 Z" stroke-width="0" fill="rgb(195, 195, 195)" style="animation-play-state:paused" ></path>
<path d="M -118.95699780788844 83.51078499205944  L -0.6156157955832953 167.69193179768982  L -26.67420161069431 76.45229377397857 Z" stroke-width="0" fill="rgb(211, 211, 211)" style="animation-play-state:paused" ></path>
<path d="M -213.3674162857716 121.44156481428669  L -144.5103842751933 159.47425053253454  L -118.95699780788844 83.51078499205944 Z" stroke-width="0" fill="rgb(246, 246, 246)" style="animation-play-state:paused" ></path>
<path d="M -118.95699780788844 83.51078499205944  L -144.5103842751933 159.47425053253454  L -0.6156157955832953 167.69193179768982 Z" stroke-width="0" fill="rgb(195, 195, 195)" style="animation-play-state:paused" ></path>
<path d="M 19.68802688963666 -58.15165166396531  L -0.6156157955832953 -88.30806820231018  L -97.87179879058289 7.783447997279048 Z" stroke-width="0" fill="rgb(171, 171, 171)" style="animation-play-state:paused" ></path>
<path d="M -0.6156157955832953 -88.30806820231018  L -144.5103842751933 -96.52574946746546  L -97.87179879058289 7.783447997279048 Z" stroke-width="0" fill="rgb(246, 246, 246)" style="animation-play-state:paused" ></path>
<path d="M -196.02406755251096 8.546896815274712  L -213.3674162857716 121.44156481428669  L -118.95699780788844 83.51078499205944 Z" stroke-width="0" fill="rgb(195, 195, 195)" style="animation-play-state:paused" ></path>
<path d="M -97.87179879058289 263.78344799727904  L 19.68802688963666 197.8483483360347  L -0.6156157955832953 167.69193179768982 Z" stroke-width="0" fill="rgb(171, 171, 171)" style="animation-play-state:paused" ></path>
<path d="M -0.6156157955832953 167.69193179768982  L 19.68802688963666 197.8483483360347  L 42.63258371422839 121.44156481428669 Z" stroke-width="0" fill="rgb(246, 246, 246)" style="animation-play-state:paused" ></path>
<path d="M -144.5103842751933 -96.52574946746546  L -236.31197311036334 -58.15165166396531  L -196.02406755251096 8.546896815274712 Z" stroke-width="0" fill="rgb(211, 211, 211)" style="animation-play-state:paused" ></path>
<path d="M -196.02406755251096 8.546896815274712  L -272.88562300900765 29.586930089397654  L -213.3674162857716 121.44156481428669 Z" stroke-width="0" fill="rgb(211, 211, 211)" style="animation-play-state:paused" ></path>
<path d="M 111.48961572480671 159.47425053253454  L 137.04300219211157 83.51078499205944  L 42.63258371422839 121.44156481428669 Z" stroke-width="0" fill="rgb(246, 246, 246)" style="animation-play-state:paused" ></path>
<path d="M 42.63258371422839 121.44156481428669  L 137.04300219211157 83.51078499205944  L 59.97593244748904 8.546896815274712 Z" stroke-width="0" fill="rgb(195, 195, 195)" style="animation-play-state:paused" ></path>
<path d="M 111.48961572480671 -96.52574946746546  L 42.63258371422839 -134.5584351857133  L 19.68802688963666 -58.15165166396531 Z" stroke-width="0" fill="rgb(232, 232, 232)" style="animation-play-state:paused" ></path>
<path d="M 19.68802688963666 -58.15165166396531  L 42.63258371422839 -134.5584351857133  L -0.6156157955832953 -88.30806820231018 Z" stroke-width="0" fill="rgb(246, 246, 246)" style="animation-play-state:paused" ></path>
<path d="M 111.48961572480671 -96.52574946746546  L 19.68802688963666 -58.15165166396531  L 59.97593244748904 8.546896815274712 Z" stroke-width="0" fill="rgb(211, 211, 211)" style="animation-play-state:paused" ></path>
<path d="M -0.6156157955832953 -88.30806820231018  L -118.95699780788844 -172.48921500794057  L -144.5103842751933 -96.52574946746546 Z" stroke-width="0" fill="rgb(195, 195, 195)" style="animation-play-state:paused" ></path>
<path d="M -236.31197311036334 -58.15165166396531  L -272.88562300900765 29.586930089397654  L -196.02406755251096 8.546896815274712 Z" stroke-width="0" fill="rgb(195, 195, 195)" style="animation-play-state:paused" ></path>
<path d="M 19.68802688963666 197.8483483360347  L 111.48961572480671 159.47425053253454  L 42.63258371422839 121.44156481428669 Z" stroke-width="0" fill="rgb(232, 232, 232)" style="animation-play-state:paused" ></path>
<path d="M -272.88562300900765 29.586930089397654  L -282.6742016106943 76.45229377397857  L -213.3674162857716 121.44156481428669 Z" stroke-width="0" fill="rgb(171, 171, 171)" style="animation-play-state:paused" ></path>
<path d="M -196.02406755251096 264.5468968152747  L -97.87179879058289 263.78344799727904  L -144.5103842751933 159.47425053253454 Z" stroke-width="0" fill="rgb(246, 246, 246)" style="animation-play-state:paused" ></path>
<path d="M -144.5103842751933 159.47425053253454  L -97.87179879058289 263.78344799727904  L -0.6156157955832953 167.69193179768982 Z" stroke-width="0" fill="rgb(246, 246, 246)" style="animation-play-state:paused" ></path>
<path d="M 19.68802688963666 197.8483483360347  L 59.97593244748904 264.5468968152747  L 111.48961572480671 159.47425053253454 Z" stroke-width="0" fill="rgb(211, 211, 211)" style="animation-play-state:paused" ></path>
<path d="M -236.31197311036334 197.8483483360347  L -144.5103842751933 159.47425053253454  L -213.3674162857716 121.44156481428669 Z" stroke-width="0" fill="rgb(232, 232, 232)" style="animation-play-state:paused" ></path>
<path d="M -26.67420161069431 -179.54770622602143  L -118.95699780788844 -172.48921500794057  L -0.6156157955832953 -88.30806820231018 Z" stroke-width="0" fill="rgb(211, 211, 211)" style="animation-play-state:paused" ></path>
<path d="M -144.5103842751933 -96.52574946746546  L -213.3674162857716 -134.5584351857133  L -236.31197311036334 -58.15165166396531 Z" stroke-width="0" fill="rgb(232, 232, 232)" style="animation-play-state:paused" ></path>
<path d="M 158.1282012094171 7.783447997279048  L 111.48961572480671 -96.52574946746546  L 59.97593244748904 8.546896815274712 Z" stroke-width="0" fill="rgb(246, 246, 246)" style="animation-play-state:paused" ></path>
<path d="M 137.04300219211157 83.51078499205944  L 158.1282012094171 7.783447997279048  L 59.97593244748904 8.546896815274712 Z" stroke-width="0" fill="rgb(195, 195, 195)" style="animation-play-state:paused" ></path>
<path d="M -16.885623009007674 -226.41306991060236  L -26.67420161069431 -179.54770622602143  L 42.63258371422839 -134.5584351857133 Z" stroke-width="0" fill="rgb(171, 171, 171)" style="animation-play-state:paused" ></path>
<path d="M 42.63258371422839 -134.5584351857133  L -26.67420161069431 -179.54770622602143  L -0.6156157955832953 -88.30806820231018 Z" stroke-width="0" fill="rgb(195, 195, 195)" style="animation-play-state:paused" ></path>
<path d="M -282.6742016106943 76.45229377397857  L -256.61561579558327 167.69193179768982  L -213.3674162857716 121.44156481428669 Z" stroke-width="0" fill="rgb(195, 195, 195)" style="animation-play-state:paused" ></path>
<path d="M -256.61561579558327 167.69193179768982  L -236.31197311036334 197.8483483360347  L -213.3674162857716 121.44156481428669 Z" stroke-width="0" fill="rgb(246, 246, 246)" style="animation-play-state:paused" ></path>
<path d="M -118.95699780788844 -172.48921500794057  L -213.3674162857716 -134.5584351857133  L -144.5103842751933 -96.52574946746546 Z" stroke-width="0" fill="rgb(246, 246, 246)" style="animation-play-state:paused" ></path>
<path d="M -236.31197311036334 -58.15165166396531  L -353.8717987905829 7.783447997279048  L -272.88562300900765 29.586930089397654 Z" stroke-width="0" fill="rgb(211, 211, 211)" style="animation-play-state:paused" ></path>
<path d="M -213.3674162857716 -134.5584351857133  L -256.61561579558327 -88.30806820231018  L -236.31197311036334 -58.15165166396531 Z" stroke-width="0" fill="rgb(246, 246, 246)" style="animation-play-state:paused" ></path>
<path d="M -272.88562300900765 29.586930089397654  L -353.8717987905829 7.783447997279048  L -282.6742016106943 76.45229377397857 Z" stroke-width="0" fill="rgb(246, 246, 246)" style="animation-play-state:paused" ></path>
<path d="M -97.87179879058289 263.78344799727904  L -16.885623009007674 285.58693008939764  L 19.68802688963666 197.8483483360347 Z" stroke-width="0" fill="rgb(211, 211, 211)" style="animation-play-state:paused" ></path>
<path d="M -16.885623009007674 285.58693008939764  L 59.97593244748904 264.5468968152747  L 19.68802688963666 197.8483483360347 Z" stroke-width="0" fill="rgb(195, 195, 195)" style="animation-play-state:paused" ></path>
<path d="M -236.31197311036334 197.8483483360347  L -196.02406755251096 264.5468968152747  L -144.5103842751933 159.47425053253454 Z" stroke-width="0" fill="rgb(211, 211, 211)" style="animation-play-state:paused" ></path>
<path d="M -97.87179879058289 263.78344799727904  L -26.67420161069431 332.45229377397857  L -16.885623009007674 285.58693008939764 Z" stroke-width="0" fill="rgb(246, 246, 246)" style="animation-play-state:paused" ></path>
<path d="M -272.88562300900765 285.58693008939764  L -196.02406755251096 264.5468968152747  L -236.31197311036334 197.8483483360347 Z" stroke-width="0" fill="rgb(195, 195, 195)" style="animation-play-state:paused" ></path>
<path d="M 59.97593244748904 -247.45310318472528  L -16.885623009007674 -226.41306991060236  L 42.63258371422839 -134.5584351857133 Z" stroke-width="0" fill="rgb(211, 211, 211)" style="animation-play-state:paused" ></path>
<path d="M -26.67420161069431 -179.54770622602143  L -97.87179879058289 -248.21655200272096  L -118.95699780788844 -172.48921500794057 Z" stroke-width="0" fill="rgb(232, 232, 232)" style="animation-play-state:paused" ></path>
<path d="M -272.88562300900765 -226.41306991060236  L -282.6742016106943 -179.54770622602143  L -213.3674162857716 -134.5584351857133 Z" stroke-width="0" fill="rgb(171, 171, 171)" style="animation-play-state:paused" ></path>
<path d="M -118.95699780788844 339.5107849920594  L -26.67420161069431 332.45229377397857  L -97.87179879058289 263.78344799727904 Z" stroke-width="0" fill="rgb(232, 232, 232)" style="animation-play-state:paused" ></path>
<path d="M -16.885623009007674 285.58693008939764  L 42.63258371422839 377.4415648142867  L 59.97593244748904 264.5468968152747 Z" stroke-width="0" fill="rgb(211, 211, 211)" style="animation-play-state:paused" ></path>
<path d="M -400.5103842751933 -96.52574946746546  L -353.8717987905829 7.783447997279048  L -256.61561579558327 -88.30806820231018 Z" stroke-width="0" fill="rgb(246, 246, 246)" style="animation-play-state:paused" ></path>
<path d="M -256.61561579558327 -88.30806820231018  L -353.8717987905829 7.783447997279048  L -236.31197311036334 -58.15165166396531 Z" stroke-width="0" fill="rgb(171, 171, 171)" style="animation-play-state:paused" ></path>
<path d="M -282.6742016106943 76.45229377397857  L -374.95699780788846 83.51078499205944  L -256.61561579558327 167.69193179768982 Z" stroke-width="0" fill="rgb(211, 211, 211)" style="animation-play-state:paused" ></path>
<path d="M -16.885623009007674 -226.41306991060236  L -97.87179879058289 -248.21655200272096  L -26.67420161069431 -179.54770622602143 Z" stroke-width="0" fill="rgb(246, 246, 246)" style="animation-play-state:paused" ></path>
<path d="M 255.3843842044167 167.69193179768982  L 229.3257983893057 76.45229377397857  L 137.04300219211157 83.51078499205944 Z" stroke-width="0" fill="rgb(211, 211, 211)" style="animation-play-state:paused" ></path>
<path d="M 137.04300219211157 83.51078499205944  L 229.3257983893057 76.45229377397857  L 158.1282012094171 7.783447997279048 Z" stroke-width="0" fill="rgb(232, 232, 232)" style="animation-play-state:paused" ></path>
<path d="M 255.3843842044167 -88.30806820231018  L 137.04300219211157 -172.48921500794057  L 111.48961572480671 -96.52574946746546 Z" stroke-width="0" fill="rgb(195, 195, 195)" style="animation-play-state:paused" ></path>
<path d="M 255.3843842044167 167.69193179768982  L 137.04300219211157 83.51078499205944  L 111.48961572480671 159.47425053253454 Z" stroke-width="0" fill="rgb(195, 195, 195)" style="animation-play-state:paused" ></path>
<path d="M 255.3843842044167 -88.30806820231018  L 111.48961572480671 -96.52574946746546  L 158.1282012094171 7.783447997279048 Z" stroke-width="0" fill="rgb(246, 246, 246)" style="animation-play-state:paused" ></path>
<path d="M 111.48961572480671 -96.52574946746546  L 137.04300219211157 -172.48921500794057  L 42.63258371422839 -134.5584351857133 Z" stroke-width="0" fill="rgb(246, 246, 246)" style="animation-play-state:paused" ></path>
<path d="M -196.02406755251096 264.5468968152747  L -118.95699780788844 339.5107849920594  L -97.87179879058289 263.78344799727904 Z" stroke-width="0" fill="rgb(195, 195, 195)" style="animation-play-state:paused" ></path>
<path d="M 229.3257983893057 76.45229377397857  L 239.11437699099233 29.586930089397654  L 158.1282012094171 7.783447997279048 Z" stroke-width="0" fill="rgb(246, 246, 246)" style="animation-play-state:paused" ></path>
<path d="M 137.04300219211157 339.5107849920594  L 158.1282012094171 263.78344799727904  L 59.97593244748904 264.5468968152747 Z" stroke-width="0" fill="rgb(195, 195, 195)" style="animation-play-state:paused" ></path>
<path d="M 59.97593244748904 264.5468968152747  L 158.1282012094171 263.78344799727904  L 111.48961572480671 159.47425053253454 Z" stroke-width="0" fill="rgb(246, 246, 246)" style="animation-play-state:paused" ></path>
<path d="M -196.02406755251096 -247.45310318472528  L -213.3674162857716 -134.5584351857133  L -118.95699780788844 -172.48921500794057 Z" stroke-width="0" fill="rgb(195, 195, 195)" style="animation-play-state:paused" ></path>
<path d="M -213.3674162857716 -134.5584351857133  L -282.6742016106943 -179.54770622602143  L -256.61561579558327 -88.30806820231018 Z" stroke-width="0" fill="rgb(195, 195, 195)" style="animation-play-state:paused" ></path>
<path d="M -353.8717987905829 7.783447997279048  L -374.95699780788846 83.51078499205944  L -282.6742016106943 76.45229377397857 Z" stroke-width="0" fill="rgb(232, 232, 232)" style="animation-play-state:paused" ></path>
<path d="M -353.8717987905829 263.78344799727904  L -272.88562300900765 285.58693008939764  L -236.31197311036334 197.8483483360347 Z" stroke-width="0" fill="rgb(211, 211, 211)" style="animation-play-state:paused" ></path>
<path d="M -16.885623009007674 -226.41306991060236  L 59.97593244748904 -247.45310318472528  L -97.87179879058289 -248.21655200272096 Z" stroke-width="0" fill="rgb(232, 232, 232)" style="animation-play-state:paused" ></path>
<path d="M 137.04300219211157 -172.48921500794057  L 59.97593244748904 -247.45310318472528  L 42.63258371422839 -134.5584351857133 Z" stroke-width="0" fill="rgb(195, 195, 195)" style="animation-play-state:paused" ></path>
<path d="M -353.8717987905829 263.78344799727904  L -236.31197311036334 197.8483483360347  L -256.61561579558327 167.69193179768982 Z" stroke-width="0" fill="rgb(171, 171, 171)" style="animation-play-state:paused" ></path>
<path d="M -196.02406755251096 264.5468968152747  L -213.3674162857716 377.4415648142867  L -118.95699780788844 339.5107849920594 Z" stroke-width="0" fill="rgb(195, 195, 195)" style="animation-play-state:paused" ></path>
<path d="M -97.87179879058289 -248.21655200272096  L -196.02406755251096 -247.45310318472528  L -118.95699780788844 -172.48921500794057 Z" stroke-width="0" fill="rgb(195, 195, 195)" style="animation-play-state:paused" ></path>
<path d="M -196.02406755251096 -247.45310318472528  L -272.88562300900765 -226.41306991060236  L -213.3674162857716 -134.5584351857133 Z" stroke-width="0" fill="rgb(211, 211, 211)" style="animation-play-state:paused" ></path>
<path d="M -374.95699780788846 -172.48921500794057  L -400.5103842751933 -96.52574946746546  L -256.61561579558327 -88.30806820231018 Z" stroke-width="0" fill="rgb(195, 195, 195)" style="animation-play-state:paused" ></path>
<path d="M 158.1282012094171 263.78344799727904  L 255.3843842044167 167.69193179768982  L 111.48961572480671 159.47425053253454 Z" stroke-width="0" fill="rgb(246, 246, 246)" style="animation-play-state:paused" ></path>
<path d="M 229.3257983893057 76.45229377397857  L 298.6325837142284 121.44156481428669  L 239.11437699099233 29.586930089397654 Z" stroke-width="0" fill="rgb(171, 171, 171)" style="animation-play-state:paused" ></path>
<path d="M 275.68802688963666 -58.15165166396531  L 255.3843842044167 -88.30806820231018  L 158.1282012094171 7.783447997279048 Z" stroke-width="0" fill="rgb(171, 171, 171)" style="animation-play-state:paused" ></path>
<path d="M 137.04300219211157 -172.48921500794057  L 158.1282012094171 -248.21655200272096  L 59.97593244748904 -247.45310318472528 Z" stroke-width="0" fill="rgb(195, 195, 195)" style="animation-play-state:paused" ></path>
<path d="M 275.68802688963666 -58.15165166396531  L 158.1282012094171 7.783447997279048  L 239.11437699099233 29.586930089397654 Z" stroke-width="0" fill="rgb(211, 211, 211)" style="animation-play-state:paused" ></path>
<path d="M -0.6156157955832953 423.6919317976898  L 42.63258371422839 377.4415648142867  L -26.67420161069431 332.45229377397857 Z" stroke-width="0" fill="rgb(195, 195, 195)" style="animation-play-state:paused" ></path>
<path d="M -26.67420161069431 332.45229377397857  L 42.63258371422839 377.4415648142867  L -16.885623009007674 285.58693008939764 Z" stroke-width="0" fill="rgb(171, 171, 171)" style="animation-play-state:paused" ></path>
<path d="M 315.9759324474891 8.546896815274712  L 275.68802688963666 -58.15165166396531  L 239.11437699099233 29.586930089397654 Z" stroke-width="0" fill="rgb(195, 195, 195)" style="animation-play-state:paused" ></path>
<path d="M -400.5103842751933 -96.52574946746546  L -400.5103842751933 159.47425053253454  L -374.95699780788846 83.51078499205944 Z" stroke-width="0" fill="rgb(232, 232, 232)" style="animation-play-state:paused" ></path>
<path d="M -374.95699780788846 83.51078499205944  L -400.5103842751933 159.47425053253454  L -256.61561579558327 167.69193179768982 Z" stroke-width="0" fill="rgb(195, 195, 195)" style="animation-play-state:paused" ></path>
<path d="M 158.1282012094171 263.78344799727904  L 275.68802688963666 197.8483483360347  L 255.3843842044167 167.69193179768982 Z" stroke-width="0" fill="rgb(171, 171, 171)" style="animation-play-state:paused" ></path>
<path d="M 42.63258371422839 377.4415648142867  L 137.04300219211157 339.5107849920594  L 59.97593244748904 264.5468968152747 Z" stroke-width="0" fill="rgb(195, 195, 195)" style="animation-play-state:paused" ></path>
<path d="M -272.88562300900765 285.58693008939764  L -213.3674162857716 377.4415648142867  L -196.02406755251096 264.5468968152747 Z" stroke-width="0" fill="rgb(211, 211, 211)" style="animation-play-state:paused" ></path>
<path d="M -118.95699780788844 339.5107849920594  L -0.6156157955832953 423.6919317976898  L -26.67420161069431 332.45229377397857 Z" stroke-width="0" fill="rgb(211, 211, 211)" style="animation-play-state:paused" ></path>
<path d="M -353.8717987905829 263.78344799727904  L -282.6742016106943 332.45229377397857  L -272.88562300900765 285.58693008939764 Z" stroke-width="0" fill="rgb(246, 246, 246)" style="animation-play-state:paused" ></path>
<path d="M -400.5103842751933 159.47425053253454  L -353.8717987905829 263.78344799727904  L -256.61561579558327 167.69193179768982 Z" stroke-width="0" fill="rgb(246, 246, 246)" style="animation-play-state:paused" ></path>
<path d="M -374.95699780788846 -172.48921500794057  L -256.61561579558327 -88.30806820231018  L -282.6742016106943 -179.54770622602143 Z" stroke-width="0" fill="rgb(211, 211, 211)" style="animation-play-state:paused" ></path>
<path d="M -353.8717987905829 7.783447997279048  L -400.5103842751933 -96.52574946746546  L -374.95699780788846 83.51078499205944 Z" stroke-width="0" fill="rgb(232, 232, 232)" style="animation-play-state:paused" ></path>
<path d="M -282.6742016106943 332.45229377397857  L -213.3674162857716 377.4415648142867  L -272.88562300900765 285.58693008939764 Z" stroke-width="0" fill="rgb(171, 171, 171)" style="animation-play-state:paused" ></path>
<path d="M 229.3257983893057 -179.54770622602143  L 137.04300219211157 -172.48921500794057  L 255.3843842044167 -88.30806820231018 Z" stroke-width="0" fill="rgb(211, 211, 211)" style="animation-play-state:paused" ></path>
<path d="M 229.3257983893057 -179.54770622602143  L 158.1282012094171 -248.21655200272096  L 137.04300219211157 -172.48921500794057 Z" stroke-width="0" fill="rgb(232, 232, 232)" style="animation-play-state:paused" ></path>
<path d="M 59.97593244748904 -247.45310318472528  L 158.1282012094171 -248.21655200272096  L -97.87179879058289 -248.21655200272096 Z" stroke-width="0" fill="rgb(246, 246, 246)" style="animation-play-state:paused" ></path>
<path d="M 298.6325837142284 -134.5584351857133  L 229.3257983893057 -179.54770622602143  L 255.3843842044167 -88.30806820231018 Z" stroke-width="0" fill="rgb(195, 195, 195)" style="animation-play-state:paused" ></path>
<path d="M 275.68802688963666 197.8483483360347  L 298.6325837142284 121.44156481428669  L 255.3843842044167 167.69193179768982 Z" stroke-width="0" fill="rgb(246, 246, 246)" style="animation-play-state:paused" ></path>
<path d="M 255.3843842044167 167.69193179768982  L 298.6325837142284 121.44156481428669  L 229.3257983893057 76.45229377397857 Z" stroke-width="0" fill="rgb(195, 195, 195)" style="animation-play-state:paused" ></path>
<path d="M 239.11437699099233 285.58693008939764  L 275.68802688963666 197.8483483360347  L 158.1282012094171 263.78344799727904 Z" stroke-width="0" fill="rgb(211, 211, 211)" style="animation-play-state:paused" ></path>
<path d="M -353.8717987905829 -248.21655200272096  L -374.95699780788846 -172.48921500794057  L -282.6742016106943 -179.54770622602143 Z" stroke-width="0" fill="rgb(232, 232, 232)" style="animation-play-state:paused" ></path>
<path d="M -213.3674162857716 377.4415648142867  L -144.5103842751933 415.47425053253454  L -118.95699780788844 339.5107849920594 Z" stroke-width="0" fill="rgb(246, 246, 246)" style="animation-play-state:paused" ></path>
<path d="M 298.6325837142284 121.44156481428669  L 315.9759324474891 8.546896815274712  L 239.11437699099233 29.586930089397654 Z" stroke-width="0" fill="rgb(211, 211, 211)" style="animation-play-state:paused" ></path>
<path d="M 275.68802688963666 -58.15165166396531  L 298.6325837142284 -134.5584351857133  L 255.3843842044167 -88.30806820231018 Z" stroke-width="0" fill="rgb(246, 246, 246)" style="animation-play-state:paused" ></path>
<path d="M -144.5103842751933 415.47425053253454  L -0.6156157955832953 423.6919317976898  L -118.95699780788844 339.5107849920594 Z" stroke-width="0" fill="rgb(195, 195, 195)" style="animation-play-state:paused" ></path>
<path d="M 42.63258371422839 377.4415648142867  L 111.48961572480671 415.47425053253454  L 137.04300219211157 339.5107849920594 Z" stroke-width="0" fill="rgb(246, 246, 246)" style="animation-play-state:paused" ></path>
<path d="M 229.3257983893057 332.45229377397857  L 158.1282012094171 263.78344799727904  L 137.04300219211157 339.5107849920594 Z" stroke-width="0" fill="rgb(232, 232, 232)" style="animation-play-state:paused" ></path>
<path d="M 229.3257983893057 332.45229377397857  L 239.11437699099233 285.58693008939764  L 158.1282012094171 263.78344799727904 Z" stroke-width="0" fill="rgb(246, 246, 246)" style="animation-play-state:paused" ></path>
<path d="M 315.9759324474891 8.546896815274712  L 298.6325837142284 -134.5584351857133  L 275.68802688963666 -58.15165166396531 Z" stroke-width="0" fill="rgb(246, 246, 246)" style="animation-play-state:paused" ></path>
<path d="M 229.3257983893057 -179.54770622602143  L 239.11437699099233 -226.41306991060236  L 158.1282012094171 -248.21655200272096 Z" stroke-width="0" fill="rgb(246, 246, 246)" style="animation-play-state:paused" ></path>
<path d="M 298.6325837142284 -134.5584351857133  L 239.11437699099233 -226.41306991060236  L 229.3257983893057 -179.54770622602143 Z" stroke-width="0" fill="rgb(171, 171, 171)" style="animation-play-state:paused" ></path>
<path d="M 19.68802688963666 453.8483483360347  L 111.48961572480671 415.47425053253454  L 42.63258371422839 377.4415648142867 Z" stroke-width="0" fill="rgb(232, 232, 232)" style="animation-play-state:paused" ></path>
<path d="M 255.3843842044167 423.6919317976898  L 229.3257983893057 332.45229377397857  L 137.04300219211157 339.5107849920594 Z" stroke-width="0" fill="rgb(211, 211, 211)" style="animation-play-state:paused" ></path>
<path d="M 239.11437699099233 285.58693008939764  L 315.9759324474891 264.5468968152747  L 275.68802688963666 197.8483483360347 Z" stroke-width="0" fill="rgb(195, 195, 195)" style="animation-play-state:paused" ></path>
<path d="M -196.02406755251096 -247.45310318472528  L -353.8717987905829 -248.21655200272096  L -272.88562300900765 -226.41306991060236 Z" stroke-width="0" fill="rgb(232, 232, 232)" style="animation-play-state:paused" ></path>
<path d="M -272.88562300900765 -226.41306991060236  L -353.8717987905829 -248.21655200272096  L -282.6742016106943 -179.54770622602143 Z" stroke-width="0" fill="rgb(246, 246, 246)" style="animation-play-state:paused" ></path>
<path d="M -374.95699780788846 -172.48921500794057  L -353.8717987905829 -248.21655200272096  L -400.5103842751933 -96.52574946746546 Z" stroke-width="0" fill="rgb(246, 246, 246)" style="animation-play-state:paused" ></path>
<path d="M -97.87179879058289 -248.21655200272096  L -353.8717987905829 -248.21655200272096  L -196.02406755251096 -247.45310318472528 Z" stroke-width="0" fill="rgb(246, 246, 246)" style="animation-play-state:paused" ></path>
<path d="M -0.6156157955832953 423.6919317976898  L 19.68802688963666 453.8483483360347  L 42.63258371422839 377.4415648142867 Z" stroke-width="0" fill="rgb(246, 246, 246)" style="animation-play-state:paused" ></path>
<path d="M -144.5103842751933 415.47425053253454  L 19.68802688963666 453.8483483360347  L -0.6156157955832953 423.6919317976898 Z" stroke-width="0" fill="rgb(195, 195, 195)" style="animation-play-state:paused" ></path>
<path d="M -213.3674162857716 377.4415648142867  L -236.31197311036334 453.8483483360347  L -144.5103842751933 415.47425053253454 Z" stroke-width="0" fill="rgb(232, 232, 232)" style="animation-play-state:paused" ></path>
<path d="M -144.5103842751933 415.47425053253454  L -236.31197311036334 453.8483483360347  L 19.68802688963666 453.8483483360347 Z" stroke-width="0" fill="rgb(195, 195, 195)" style="animation-play-state:paused" ></path>
<path d="M -282.6742016106943 332.45229377397857  L -256.61561579558327 423.6919317976898  L -213.3674162857716 377.4415648142867 Z" stroke-width="0" fill="rgb(195, 195, 195)" style="animation-play-state:paused" ></path>
<path d="M -374.95699780788846 339.5107849920594  L -256.61561579558327 423.6919317976898  L -282.6742016106943 332.45229377397857 Z" stroke-width="0" fill="rgb(211, 211, 211)" style="animation-play-state:paused" ></path>
<path d="M -353.8717987905829 263.78344799727904  L -374.95699780788846 339.5107849920594  L -282.6742016106943 332.45229377397857 Z" stroke-width="0" fill="rgb(232, 232, 232)" style="animation-play-state:paused" ></path>
<path d="M -400.5103842751933 159.47425053253454  L -374.95699780788846 339.5107849920594  L -353.8717987905829 263.78344799727904 Z" stroke-width="0" fill="rgb(232, 232, 232)" style="animation-play-state:paused" ></path>
<path d="M 298.6325837142284 377.4415648142867  L 315.9759324474891 264.5468968152747  L 239.11437699099233 285.58693008939764 Z" stroke-width="0" fill="rgb(211, 211, 211)" style="animation-play-state:paused" ></path>
<path d="M 275.68802688963666 197.8483483360347  L 315.9759324474891 264.5468968152747  L 298.6325837142284 121.44156481428669 Z" stroke-width="0" fill="rgb(246, 246, 246)" style="animation-play-state:paused" ></path>
<path d="M 298.6325837142284 121.44156481428669  L 315.9759324474891 264.5468968152747  L 315.9759324474891 8.546896815274712 Z" stroke-width="0" fill="rgb(171, 171, 171)" style="animation-play-state:paused" ></path>
<path d="M -400.5103842751933 415.47425053253454  L -236.31197311036334 453.8483483360347  L -256.61561579558327 423.6919317976898 Z" stroke-width="0" fill="rgb(195, 195, 195)" style="animation-play-state:paused" ></path>
<path d="M -256.61561579558327 423.6919317976898  L -236.31197311036334 453.8483483360347  L -213.3674162857716 377.4415648142867 Z" stroke-width="0" fill="rgb(246, 246, 246)" style="animation-play-state:paused" ></path>
<path d="M 315.9759324474891 8.546896815274712  L 315.9759324474891 -247.45310318472528  L 298.6325837142284 -134.5584351857133 Z" stroke-width="0" fill="rgb(171, 171, 171)" style="animation-play-state:paused" ></path>
<path d="M 298.6325837142284 -134.5584351857133  L 315.9759324474891 -247.45310318472528  L 239.11437699099233 -226.41306991060236 Z" stroke-width="0" fill="rgb(211, 211, 211)" style="animation-play-state:paused" ></path>
<path d="M 239.11437699099233 -226.41306991060236  L 315.9759324474891 -247.45310318472528  L 158.1282012094171 -248.21655200272096 Z" stroke-width="0" fill="rgb(232, 232, 232)" style="animation-play-state:paused" ></path>
<path d="M 255.3843842044167 423.6919317976898  L 298.6325837142284 377.4415648142867  L 229.3257983893057 332.45229377397857 Z" stroke-width="0" fill="rgb(195, 195, 195)" style="animation-play-state:paused" ></path>
<path d="M 229.3257983893057 332.45229377397857  L 298.6325837142284 377.4415648142867  L 239.11437699099233 285.58693008939764 Z" stroke-width="0" fill="rgb(171, 171, 171)" style="animation-play-state:paused" ></path>
<path d="M 255.3843842044167 423.6919317976898  L 137.04300219211157 339.5107849920594  L 111.48961572480671 415.47425053253454 Z" stroke-width="0" fill="rgb(195, 195, 195)" style="animation-play-state:paused" ></path>
<path d="M 275.68802688963666 453.8483483360347  L 255.3843842044167 423.6919317976898  L 111.48961572480671 415.47425053253454 Z" stroke-width="0" fill="rgb(195, 195, 195)" style="animation-play-state:paused" ></path>
<path d="M -400.5103842751933 159.47425053253454  L -400.5103842751933 415.47425053253454  L -374.95699780788846 339.5107849920594 Z" stroke-width="0" fill="rgb(232, 232, 232)" style="animation-play-state:paused" ></path>
<path d="M -374.95699780788846 339.5107849920594  L -400.5103842751933 415.47425053253454  L -256.61561579558327 423.6919317976898 Z" stroke-width="0" fill="rgb(195, 195, 195)" style="animation-play-state:paused" ></path>
<path d="M 19.68802688963666 453.8483483360347  L 275.68802688963666 453.8483483360347  L 111.48961572480671 415.47425053253454 Z" stroke-width="0" fill="rgb(195, 195, 195)" style="animation-play-state:paused" ></path>
<path d="M 255.3843842044167 423.6919317976898  L 275.68802688963666 453.8483483360347  L 298.6325837142284 377.4415648142867 Z" stroke-width="0" fill="rgb(246, 246, 246)" style="animation-play-state:paused" ></path></g></defs>


<g style="animation-play-state:paused" ><use xlink:href="#trianglify-0.4019822547715779" x="0" y="0" style="animation-play-state:paused" ></use></g></g></svg>