<svg xmlns="http://www.w3.org/2000/svg" xmlns:xlink="http://www.w3.org/1999/xlink" width="394" height="394" preserveAspectRatio="xMidYMid" viewBox="0 0 394 394" style="background-repeat-y:initial;background-repeat-x:initial" display="block"><g transform="scale(1.54)"><g id="a" stroke-width="0"><path d="M-26.674 76.452l9.788-46.865-80.986-21.804z" fill="#F6F6F6"/><path d="M-97.872 7.783l-21.085 75.728 92.283-7.059z" fill="#E8E8E8"/><path d="M42.633 121.442L59.976 8.547l-76.862 21.04zM-16.886 29.587l36.574-87.739-117.56 65.935z" fill="#D3D3D3"/><path d="M-.616 167.692l43.249-46.25-69.307-44.99z" fill="#C3C3C3"/><path d="M-26.674 76.452l69.307 44.99-59.519-91.855z" fill="#ABABAB"/><path d="M59.976 8.547L19.688-58.152l-36.574 87.739z" fill="#C3C3C3"/><path d="M-144.51-96.526L-196.024 8.547l98.152-.764z" fill="#F6F6F6"/><path d="M-97.872 7.783l-98.152.764 77.067 74.964z" fill="#C3C3C3"/><path d="M-118.957 83.51L-.616 167.693l-26.058-91.24z" fill="#D3D3D3"/><path d="M-213.367 121.442l68.857 38.032 25.553-75.963z" fill="#F6F6F6"/><path d="M-118.957 83.51l-25.553 75.964 143.894 8.218z" fill="#C3C3C3"/><path d="M19.688-58.152L-.616-88.308-97.872 7.783z" fill="#ABABAB"/><path d="M-.616-88.308l-143.894-8.218 46.638 104.31z" fill="#F6F6F6"/><path d="M-196.024 8.547l-17.343 112.895 94.41-37.931z" fill="#C3C3C3"/><path d="M-97.872 263.783l117.56-65.935-20.304-30.156z" fill="#ABABAB"/><path d="M-.616 167.692l20.304 30.156 22.945-76.406z" fill="#F6F6F6"/><path d="M-144.51-96.526l-91.802 38.374 40.288 66.699z" fill="#D3D3D3"/><path d="M-196.024 8.547l-76.862 21.04 59.519 91.855z" fill="#D3D3D3"/><path d="M111.49 159.474l25.553-75.963-94.41 37.93z" fill="#F6F6F6"/><path d="M42.633 121.442l94.41-37.931L59.976 8.547z" fill="#C3C3C3"/><path d="M111.49-96.526l-68.857-38.032-22.945 76.406z" fill="#E8E8E8"/><path d="M19.688-58.152l22.945-76.406-43.249 46.25z" fill="#F6F6F6"/><path d="M111.49-96.526L19.688-58.152 59.976 8.547z" fill="#D3D3D3"/><path d="M-.616-88.308l-118.341-84.181-25.553 75.963zM-236.312-58.152l-36.574 87.739 76.862-21.04z" fill="#C3C3C3"/><path d="M19.688 197.848l91.802-38.374-68.857-38.032z" fill="#E8E8E8"/><path d="M-272.886 29.587l-9.788 46.865 69.307 44.99z" fill="#ABABAB"/><path d="M-196.024 264.547l98.152-.764-46.638-104.309z" fill="#F6F6F6"/><path d="M-144.51 159.474l46.638 104.31 97.256-96.092z" fill="#F6F6F6"/><path d="M19.688 197.848l40.288 66.699 51.514-105.073z" fill="#D3D3D3"/><path d="M-236.312 197.848l91.802-38.374-68.857-38.032z" fill="#E8E8E8"/><path d="M-26.674-179.548l-92.283 7.059L-.616-88.31z" fill="#D3D3D3"/><path d="M-144.51-96.526l-68.857-38.032-22.945 76.406z" fill="#E8E8E8"/><path d="M158.128 7.783L111.49-96.526 59.976 8.547z" fill="#F6F6F6"/><path d="M137.043 83.51l21.085-75.727-98.152.764z" fill="#C3C3C3"/><path d="M-16.886-226.413l-9.788 46.865 69.307 44.99z" fill="#ABABAB"/><path d="M42.633-134.558l-69.307-44.99 26.058 91.24zM-282.674 76.452l26.058 91.24 43.249-46.25z" fill="#C3C3C3"/><path d="M-256.616 167.692l20.304 30.156 22.945-76.406zM-118.957-172.49l-94.41 37.932 68.857 38.032z" fill="#F6F6F6"/><path d="M-236.312-58.152l-117.56 65.935 80.986 21.804z" fill="#D3D3D3"/><path d="M-213.367-134.558l-43.249 46.25 20.304 30.156zM-272.886 29.587l-80.986-21.804 71.198 68.67z" fill="#F6F6F6"/><path d="M-97.872 263.783l80.986 21.804 36.574-87.739z" fill="#D3D3D3"/><path d="M-16.886 285.587l76.862-21.04-40.288-66.699z" fill="#C3C3C3"/><path d="M-236.312 197.848l40.288 66.699 51.514-105.073z" fill="#D3D3D3"/><path d="M-97.872 263.783l71.198 68.67 9.788-46.866z" fill="#F6F6F6"/><path d="M-272.886 285.587l76.862-21.04-40.288-66.699z" fill="#C3C3C3"/><path d="M59.976-247.453l-76.862 21.04 59.519 91.855z" fill="#D3D3D3"/><path d="M-26.674-179.548l-71.198-68.669-21.085 75.728z" fill="#E8E8E8"/><path d="M-272.886-226.413l-9.788 46.865 69.307 44.99z" fill="#ABABAB"/><path d="M-118.957 339.51l92.283-7.058-71.198-68.669z" fill="#E8E8E8"/><path d="M-16.886 285.587l59.519 91.855 17.343-112.895z" fill="#D3D3D3"/><path d="M-400.51-96.526l46.638 104.31 97.256-96.092z" fill="#F6F6F6"/><path d="M-256.616-88.308l-97.256 96.091 117.56-65.935z" fill="#ABABAB"/><path d="M-282.674 76.452l-92.283 7.059 118.341 84.18z" fill="#D3D3D3"/><path d="M-16.886-226.413l-80.986-21.804 71.198 68.67z" fill="#F6F6F6"/><path d="M255.384 167.692l-26.058-91.24-92.283 7.059z" fill="#D3D3D3"/><path d="M137.043 83.51l92.283-7.058-71.198-68.669z" fill="#E8E8E8"/><path d="M255.384-88.308L137.043-172.49 111.49-96.526zM255.384 167.692L137.043 83.51l-25.553 75.963z" fill="#C3C3C3"/><path d="M255.384-88.308L111.49-96.526l46.638 104.31zM111.49-96.526l25.553-75.963-94.41 37.93z" fill="#F6F6F6"/><path d="M-196.024 264.547l77.067 74.964 21.085-75.728z" fill="#C3C3C3"/><path d="M229.326 76.452l9.788-46.865-80.986-21.804z" fill="#F6F6F6"/><path d="M137.043 339.51l21.085-75.727-98.152.764z" fill="#C3C3C3"/><path d="M59.976 264.547l98.152-.764-46.638-104.309z" fill="#F6F6F6"/><path d="M-196.024-247.453l-17.343 112.895 94.41-37.931zM-213.367-134.558l-69.307-44.99 26.058 91.24z" fill="#C3C3C3"/><path d="M-353.872 7.783l-21.085 75.728 92.283-7.059z" fill="#E8E8E8"/><path d="M-353.872 263.783l80.986 21.804 36.574-87.739z" fill="#D3D3D3"/><path d="M-16.886-226.413l76.862-21.04-157.848-.764z" fill="#E8E8E8"/><path d="M137.043-172.49l-77.067-74.963-17.343 112.895z" fill="#C3C3C3"/><path d="M-353.872 263.783l117.56-65.935-20.304-30.156z" fill="#ABABAB"/><path d="M-196.024 264.547l-17.343 112.895 94.41-37.931zM-97.872-248.217l-98.152.764 77.067 74.964z" fill="#C3C3C3"/><path d="M-196.024-247.453l-76.862 21.04 59.519 91.855z" fill="#D3D3D3"/><path d="M-374.957-172.49l-25.553 75.964 143.894 8.218z" fill="#C3C3C3"/><path d="M158.128 263.783l97.256-96.091-143.894-8.218z" fill="#F6F6F6"/><path d="M229.326 76.452l69.307 44.99-59.519-91.855zM275.688-58.152l-20.304-30.156-97.256 96.091z" fill="#ABABAB"/><path d="M137.043-172.49l21.085-75.727-98.152.764z" fill="#C3C3C3"/><path d="M275.688-58.152L158.128 7.783l80.986 21.804z" fill="#D3D3D3"/><path d="M-.616 423.692l43.249-46.25-69.307-44.99z" fill="#C3C3C3"/><path d="M-26.674 332.452l69.307 44.99-59.519-91.855z" fill="#ABABAB"/><path d="M315.976 8.547l-40.288-66.699-36.574 87.739z" fill="#C3C3C3"/><path d="M-400.51-96.526v256l25.553-75.963z" fill="#E8E8E8"/><path d="M-374.957 83.51l-25.553 75.964 143.894 8.218z" fill="#C3C3C3"/><path d="M158.128 263.783l117.56-65.935-20.304-30.156z" fill="#ABABAB"/><path d="M42.633 377.442l94.41-37.931-77.067-74.964z" fill="#C3C3C3"/><path d="M-272.886 285.587l59.519 91.855 17.343-112.895zM-118.957 339.51L-.616 423.693l-26.058-91.24z" fill="#D3D3D3"/><path d="M-353.872 263.783l71.198 68.67 9.788-46.866z" fill="#F6F6F6"/><path d="M-400.51 159.474l46.638 104.31 97.256-96.092z" fill="#F6F6F6"/><path d="M-374.957-172.49l118.341 84.182-26.058-91.24z" fill="#D3D3D3"/><path d="M-353.872 7.783L-400.51-96.526l25.553 180.037z" fill="#E8E8E8"/><path d="M-282.674 332.452l69.307 44.99-59.519-91.855z" fill="#ABABAB"/><path d="M229.326-179.548l-92.283 7.059 118.341 84.18z" fill="#D3D3D3"/><path d="M229.326-179.548l-71.198-68.669-21.085 75.728z" fill="#E8E8E8"/><path d="M59.976-247.453l98.152-.764h-256z" fill="#F6F6F6"/><path d="M298.633-134.558l-69.307-44.99 26.058 91.24z" fill="#C3C3C3"/><path d="M275.688 197.848l22.945-76.406-43.249 46.25z" fill="#F6F6F6"/><path d="M255.384 167.692l43.249-46.25-69.307-44.99z" fill="#C3C3C3"/><path d="M239.114 285.587l36.574-87.739-117.56 65.935z" fill="#D3D3D3"/><path d="M-353.872-248.217l-21.085 75.728 92.283-7.059z" fill="#E8E8E8"/><path d="M-213.367 377.442l68.857 38.032 25.553-75.963z" fill="#F6F6F6"/><path d="M298.633 121.442L315.976 8.547l-76.862 21.04z" fill="#D3D3D3"/><path d="M275.688-58.152l22.945-76.406-43.249 46.25z" fill="#F6F6F6"/><path d="M-144.51 415.474l143.894 8.218-118.341-84.181z" fill="#C3C3C3"/><path d="M42.633 377.442l68.857 38.032 25.553-75.963z" fill="#F6F6F6"/><path d="M229.326 332.452l-71.198-68.669-21.085 75.728z" fill="#E8E8E8"/><path d="M229.326 332.452l9.788-46.865-80.986-21.804zM315.976 8.547l-17.343-143.105-22.945 76.406zM229.326-179.548l9.788-46.865-80.986-21.804z" fill="#F6F6F6"/><path d="M298.633-134.558l-59.519-91.855-9.788 46.865z" fill="#ABABAB"/><path d="M19.688 453.848l91.802-38.374-68.857-38.032z" fill="#E8E8E8"/><path d="M255.384 423.692l-26.058-91.24-92.283 7.059z" fill="#D3D3D3"/><path d="M239.114 285.587l76.862-21.04-40.288-66.699z" fill="#C3C3C3"/><path d="M-196.024-247.453l-157.848-.764 80.986 21.804z" fill="#E8E8E8"/><path d="M-272.886-226.413l-80.986-21.804 71.198 68.67zM-374.957-172.49l21.085-75.727-46.638 151.691zM-97.872-248.217h-256l157.848.764zM-.616 423.692l20.304 30.156 22.945-76.406z" fill="#F6F6F6"/><path d="M-144.51 415.474l164.198 38.374-20.304-30.156z" fill="#C3C3C3"/><path d="M-213.367 377.442l-22.945 76.406 91.802-38.374z" fill="#E8E8E8"/><path d="M-144.51 415.474l-91.802 38.374h256zM-282.674 332.452l26.058 91.24 43.249-46.25z" fill="#C3C3C3"/><path d="M-374.957 339.51l118.341 84.182-26.058-91.24z" fill="#D3D3D3"/><path d="M-353.872 263.783l-21.085 75.728 92.283-7.059zM-400.51 159.474l25.553 180.037 21.085-75.728z" fill="#E8E8E8"/><path d="M298.633 377.442l17.343-112.895-76.862 21.04z" fill="#D3D3D3"/><path d="M275.688 197.848l40.288 66.699-17.343-143.105z" fill="#F6F6F6"/><path d="M298.633 121.442l17.343 143.105v-256z" fill="#ABABAB"/><path d="M-400.51 415.474l164.198 38.374-20.304-30.156z" fill="#C3C3C3"/><path d="M-256.616 423.692l20.304 30.156 22.945-76.406z" fill="#F6F6F6"/><path d="M315.976 8.547v-256l-17.343 112.895z" fill="#ABABAB"/><path d="M298.633-134.558l17.343-112.895-76.862 21.04z" fill="#D3D3D3"/><path d="M239.114-226.413l76.862-21.04-157.848-.764z" fill="#E8E8E8"/><path d="M255.384 423.692l43.249-46.25-69.307-44.99z" fill="#C3C3C3"/><path d="M229.326 332.452l69.307 44.99-59.519-91.855z" fill="#ABABAB"/><path d="M255.384 423.692L137.043 339.51l-25.553 75.963zM275.688 453.848l-20.304-30.156-143.894-8.218z" fill="#C3C3C3"/><path d="M-400.51 159.474v256l25.553-75.963z" fill="#E8E8E8"/><path d="M-374.957 339.51l-25.553 75.964 143.894 8.218zM19.688 453.848h256L111.49 415.474z" fill="#C3C3C3"/><path d="M255.384 423.692l20.304 30.156 22.945-76.406z" fill="#F6F6F6"/></g><use xlink:href="#a"/></g></svg>
