<svg xmlns="http://www.w3.org/2000/svg" viewBox="0 0 945 990"><defs><style>.cls-3{stroke:#fff;stroke-linecap:round;stroke-miterlimit:10}.cls-2,.cls-3{fill:#fff}.cls-3{stroke-width:21px}</style></defs><path d="M643 885.68c162.7-68.09 277-228.79 277-416.2 0-249.08-201.92-451-451-451S18 220.4 18 469.48c0 187.41 114.31 348.11 277 416.2" stroke="#fff" stroke-linecap="round" stroke-miterlimit="10" fill="none" stroke-width="36" id="circle_open_3" data-name="circle open 3"/><g id="Ebene_15" data-name="Ebene 15"><path class="cls-2" d="M460.1 859.87a14.58 14.58 0 0 1-8.17 12.89 14.41 14.41 0 0 1-15.09-1.7 14.56 14.56 0 0 1-5.41-11.46v-48.73a16.15 16.15 0 0 1 2.11-8.59 14.52 14.52 0 0 1 13.76-6.78 14.38 14.38 0 0 1 11.85 9.08 19.64 19.64 0 0 1 1 7.21v48.08c0 3.39 5.26 3.39 5.26 0V812a28.67 28.67 0 0 0-.71-7.5 19.9 19.9 0 0 0-12.16-13.15 19.55 19.55 0 0 0-17.9 2.31 19.87 19.87 0 0 0-8.42 16V857.6a28.67 28.67 0 0 0 .71 7.5A19.82 19.82 0 0 0 439 878.21a19.6 19.6 0 0 0 17.9-2.32 19.85 19.85 0 0 0 8.42-16c.09-3.41-5.17-3.41-5.22-.02Z"/><path class="cls-2" d="M466.71 932.16c2.32-23.58 22.85-45.71 47.25-45.9 1.36 0 2.71.06 4.07.18 2.74.25 3.39-3.61 1.32-4.9l-31.57-19.68-.51-.31c.32 1.2.63 2.4 1 3.6a2.67 2.67 0 0 0-.95-3.6 14.62 14.62 0 0 1-6.59-14 14.4 14.4 0 0 1 9.93-11.79 14.66 14.66 0 0 1 12.25 1.72l6.19 3.81L529.76 854l4.72 2.91c4.67 2.87 6.84 7.85 6.84 13.18 0 13-.14 26-.21 39 0 1.81 0 3.62-.05 5.43a60.15 60.15 0 0 1-2.8 16.6 64.86 64.86 0 0 1-17.77 27.72c-17.58 16.49-43.17 22.87-66.64 18.32-22.7-4.4-43-19.18-52.32-40.58a60.66 60.66 0 0 1-4.86-24.5v-8.23l.18-39.41.22-51.62q.09-20.91.19-41.83V759.3l-2.63 2.63h.05a2.65 2.65 0 0 0 2.63-2.63 14.34 14.34 0 0 1 28.68.14 2.65 2.65 0 0 0 2.71 2.56h.05l-2.63-2.62v59.54c0 3.39 5.26 3.39 5.26 0v-59.55a2.65 2.65 0 0 0-2.63-2.63h-.05l2.63 2.62a19.84 19.84 0 0 0-19.53-19.66c-10.76-.16-19.51 8.95-19.67 19.52l2.63-2.63h-.05a2.66 2.66 0 0 0-2.63 2.63l-.09 20.4q-.11 23.24-.2 46.49-.12 25.27-.23 50.56-.06 16.32-.14 32.62a87.54 87.54 0 0 0 .65 12.53 67.23 67.23 0 0 0 13.13 31.31c14.91 19.63 38.93 30.48 63.39 30.64s48.61-10.69 63.63-30.13a67.3 67.3 0 0 0 13.39-31.21c.92-6.25.75-12.57.79-18.88q.06-12.39.14-24.77v-7.49a23.89 23.89 0 0 0-2.34-11.47c-3.14-6.11-9.89-9.25-15.5-12.69l-20.28-12.49a46.47 46.47 0 0 0-6.12-3.43 19.58 19.58 0 0 0-18.92 34c.4.3.81.57 1.23.83-.32-1.19-.63-2.39-.94-3.59a2.66 2.66 0 0 0 .94 3.6l31.58 19.68.5.32q.66-2.46 1.33-4.9c-25.77-2.32-48.7 18.21-55.06 42.21a55.36 55.36 0 0 0-1.52 8.76 2.63 2.63 0 0 0 2.63 2.63 2.68 2.68 0 0 0 2.63-2.63Z"/><path class="cls-2" d="M499.28 832.49V809.7c0-3.39-5.26-3.39-5.26 0v22.79c0 3.39 5.26 3.39 5.26 0Z"/><path class="cls-2" d="M491.76 867.56a14.35 14.35 0 0 1-26.05-4.56 24.75 24.75 0 0 1-.35-5.9v-34.26c0-4.83-.31-9.78.07-14.6a14.34 14.34 0 0 1 24.21-8.8 14.85 14.85 0 0 1 4.4 11.13v21.92c0 3.39 5.26 3.39 5.26 0V812.9c0-3.54 0-7-1.4-10.37a19.85 19.85 0 0 0-13.49-11.79c-12.15-3.07-24.31 6.56-24.31 19v40.46c0 5.45-.69 11.71 1.4 16.86a19.67 19.67 0 0 0 15.25 12.08 19.89 19.89 0 0 0 19.55-8.95c1.86-2.85-2.69-5.48-4.54-2.65Z"/><path class="cls-2" d="M533.21 851.37v-91.18a23.18 23.18 0 0 0-1.67-9.34 20 20 0 0 0-13.49-11.32c-12.21-3-24.52 6.72-24.43 19.3l.12 15 .27 36c0 3.39 5.28 3.39 5.26 0l-.3-39.05q0-4.56-.07-9.14a29.62 29.62 0 0 1 .2-5.41 14.54 14.54 0 0 1 28.85 3v92.14c0 3.4 5.26 3.4 5.26 0Z"/></g><g id="linien"><path class="cls-3" d="m201.27 229.32 487.33-59.84M207.27 647.32l487.33-59.84"/></g><g id="typo"><path class="cls-2" d="M106.14 326.65q2.85-.76 6.19-1.51a62.2 62.2 0 0 1 6.19-1.1 58.22 58.22 0 0 1 5.91-.39h5.92l19.31 48.23 20-53c1.81-.5 3.65-1 5.51-1.43a47.79 47.79 0 0 1 5.51-1 50.72 50.72 0 0 1 5.85-.38h5.84L197 412.6q-2.18.67-4.83 1.4a49.11 49.11 0 0 1-7 1.27 60.78 60.78 0 0 1-11.29.16L172 359.36l-15 39q-2.44.71-4.89 1.28a41.28 41.28 0 0 1-4.49.82c-1.36.17-2.77.27-4.22.32a32.61 32.61 0 0 1-4.48-.2l-13.33-34.98-1.5 55.95a56 56 0 0 1-10.88 2.56 57.47 57.47 0 0 1-11 .13ZM251 407.87q-11 1.35-18.29-.75a22.42 22.42 0 0 1-11.5-7.22 30 30 0 0 1-5.93-12.9 84.17 84.17 0 0 1-1.7-17.88v-55.67q3.94-1 6.8-1.58c1.9-.37 3.72-.66 5.44-.87q2.31-.28 5.1-.42t6.73-.08v52.77a100.31 100.31 0 0 0 .55 11.49 22.56 22.56 0 0 0 2 7.51 7.39 7.39 0 0 0 4 3.79 14.61 14.61 0 0 0 6.8.46 17.23 17.23 0 0 0 6.87-2.14 10.37 10.37 0 0 0 4.08-4.78 25.83 25.83 0 0 0 1.9-8q.48-4.82.48-11.62v-52.75q4.08-1.05 6.87-1.59t5.1-.84c1.63-.2 3.4-.35 5.3-.44s4.17-.13 6.8-.09v55.62a91 91 0 0 1-1.7 18.3 39.4 39.4 0 0 1-5.92 14.4 31.74 31.74 0 0 1-11.49 10q-7.29 3.93-18.29 5.28ZM344.14 335.23a106.24 106.24 0 0 1 10.27 3.43 26.19 26.19 0 0 1 7.82 4.76 19.34 19.34 0 0 1 5 7.4A30.47 30.47 0 0 1 369 362a34.44 34.44 0 0 1-2.52 13.3 32.15 32.15 0 0 1-7.41 10.84 40.37 40.37 0 0 1-12 7.86 58.41 58.41 0 0 1-16.39 4.26 71.82 71.82 0 0 1-14.89.47 86.17 86.17 0 0 1-13.94-2.5 81.27 81.27 0 0 1 1.91-10.37q1.35-5.54 3.26-11.35 12.51 3.9 21.76 2.77 6.93-.86 10.81-3.44a8.67 8.67 0 0 0 3.88-7.75 7.34 7.34 0 0 0-.82-3.64 6.89 6.89 0 0 0-2.17-2.38 11.69 11.69 0 0 0-3.06-1.46c-1.14-.36-2.3-.7-3.47-1l-7.62-1.92a43 43 0 0 1-8.91-3.12 23.93 23.93 0 0 1-6.86-4.93 20.59 20.59 0 0 1-4.42-7.15 28.3 28.3 0 0 1-1.57-10 33.77 33.77 0 0 1 2.43-13.14 31.38 31.38 0 0 1 6.87-10.29 34.18 34.18 0 0 1 10.67-7.16 50 50 0 0 1 14-3.7 64.32 64.32 0 0 1 13.4-.28 102.53 102.53 0 0 1 13.8 2.25 74.49 74.49 0 0 1-2 9.83 67.65 67.65 0 0 1-3.6 10.3c-2.36-.7-5.13-1.41-8.3-2.11a35.73 35.73 0 0 0-11.83-.18 22 22 0 0 0-4.15.92 13.71 13.71 0 0 0-3.54 1.73 8.18 8.18 0 0 0-2.51 2.75 8 8 0 0 0-.95 4q0 3.94 2.58 5.53a22.51 22.51 0 0 0 6.12 2.51ZM396.77 389.29a71.56 71.56 0 0 1-12.1.26v-97.1q3.66-1 6.66-1.64t5.3-.92c1.64-.2 3.47-.33 5.51-.4s4.24-.07 6.6 0v97.11a79.29 79.29 0 0 1-11.97 2.69ZM427 287.25q3.68-1 6.67-1.63t5.3-.92c1.63-.2 3.47-.34 5.51-.41s4.23-.06 6.59 0v97.1a77.77 77.77 0 0 1-12 2.7 71.53 71.53 0 0 1-12.1.26Zm52.5 40.48 25.43 47.06a48.43 48.43 0 0 1-6.19 1.64c-2.58.55-4.92.95-7 1.2-2.63.33-5.17.52-7.62.6a53 53 0 0 1-6.25-.12l-24.89-45.9 23-51c2.72-.78 5.08-1.37 7.07-1.75s4-.7 6.12-.95c1-.13 2.13-.24 3.4-.35s2.52-.18 3.74-.19h6.46ZM207.69 562.51a71.65 71.65 0 0 1-12.11.26v-97.11q3.67-1 6.67-1.63c2-.43 3.76-.73 5.3-.92s3.47-.34 5.51-.41 4.24-.06 6.59 0v97.1a77.94 77.94 0 0 1-11.96 2.71ZM237.88 460.47c2-.6 3.81-1.1 5.44-1.48a45.63 45.63 0 0 1 4.76-.86 41.92 41.92 0 0 1 5.1-.29c1.77 0 3.28.08 4.55.19l31.56 49.44v-53.31c2.35-.65 4.48-1.19 6.39-1.6s3.62-.72 5.17-.91a46.62 46.62 0 0 1 4.89-.33c1.72 0 3.54 0 5.44.15l-.13 97.12a35.7 35.7 0 0 1-3.95 1.3 37.39 37.39 0 0 1-5.57 1.09 35.83 35.83 0 0 1-6.12.28c-1.82-.1-3.13-.18-4-.26l-31.69-49.15v53a58.47 58.47 0 0 1-10.88 2.56 56.12 56.12 0 0 1-11 .13ZM341.51 546.08a72.63 72.63 0 0 1-12.1.26v-97.11q3.66-1 6.66-1.63c2-.43 3.76-.73 5.3-.92s3.47-.34 5.51-.41 4.24-.06 6.6 0v97.1a78.28 78.28 0 0 1-11.97 2.71ZM389.52 462.8l-22.71 2.78a50.26 50.26 0 0 1-1.23-10.58 55.12 55.12 0 0 1 1.23-10.62l69.49-8.53c.36 2 .64 3.77.82 5.47a46.23 46.23 0 0 1 .27 4.86 65.9 65.9 0 0 1-1.09 10.88l-22.71 2.79V536a78.08 78.08 0 0 1-12 2.69 71.42 71.42 0 0 1-12.1.27ZM461.6 531.33a71.65 71.65 0 0 1-12.11.26v-97.1q3.67-1 6.67-1.64t5.3-.92c1.63-.2 3.47-.33 5.51-.4s4.24-.07 6.6 0v97.11a79.29 79.29 0 0 1-11.97 2.69ZM507.84 524.56q-3.13.93-5.71 1.52a50.94 50.94 0 0 1-5 .89 52.86 52.86 0 0 1-5.64.35q-3.19.06-7.14-.14l30.46-100.84q3.54-.84 6.6-1.49c2-.43 4.1-.78 6.19-1q2.58-.33 5.64-.43c2-.06 4.38-.13 7-.18l30 93.55a93.82 93.82 0 0 1-13.6 2.9c-1.81.22-3.62.35-5.44.39s-3.76 0-5.84-.1l-5.17-18.26a67.43 67.43 0 0 1-7.28 2.52 46.23 46.23 0 0 1-6.87 1.39 43.44 43.44 0 0 1-6.39.31 54.91 54.91 0 0 1-6.8-.6Zm19-74.14-9.11 36.07a43.85 43.85 0 0 0 4.35.55 20.61 20.61 0 0 0 4.21-.11 30.64 30.64 0 0 0 4.56-.9 44.05 44.05 0 0 0 4.69-1.59ZM586.58 438.6l-22.71 2.79a51 51 0 0 1-1.22-10.6 55.83 55.83 0 0 1 1.22-10.62l69.5-8.53q.54 2.92.81 5.48a46.33 46.33 0 0 1 .28 4.86 66.9 66.9 0 0 1-1.09 10.87l-22.71 2.79v76.16a78.28 78.28 0 0 1-12 2.7 71.65 71.65 0 0 1-12.11.26ZM658.66 507.13a71.42 71.42 0 0 1-12.1.27v-97.11c2.45-.66 4.67-1.21 6.66-1.63s3.76-.74 5.31-.93 3.47-.33 5.51-.4 4.23-.07 6.59 0v97.1a78.08 78.08 0 0 1-11.97 2.7ZM725.3 466.45l18.64-68.11q3.12-.93 6.32-1.6t6.73-1.1c1.54-.19 3.45-.3 5.71-.36s4.26 0 6 0l-31.29 101.1q-3.54 1-6.6 1.62c-2 .43-4 .77-5.91 1s-3.68.36-5.58.41-4.17.06-6.8 0L681.38 406q2.31-.69 6.12-1.5t7.34-1.24a61 61 0 0 1 6.26-.43c2.26-.05 4.26-.05 6 0ZM831 434.16a54.11 54.11 0 0 1-1.22 10.76l-26.25 3.22v19.31l34.14-4.19a47.5 47.5 0 0 1 1.22 10.19 53.22 53.22 0 0 1-1.22 10.89l-58.21 7.15V393.7l57.39-7c.36 1.95.64 3.77.82 5.47a46.41 46.41 0 0 1 .27 4.87 65.8 65.8 0 0 1-1.09 10.87L803.5 412v15l26.25-3.22a51.22 51.22 0 0 1 1.25 10.38ZM219.1 683.35a8.87 8.87 0 0 1 .91-.19c.36-.07.69-.11 1-.15s.64-.07 1-.09h.86v38.83c-.25.06-.54.13-.86.19l-1 .14c-.36.05-.72.08-1.06.1s-.62 0-.83 0ZM234.16 681.34l2.08-.45 1.73-.37c.56-.12 1.14-.23 1.75-.32s1.34-.19 2.16-.3a23.65 23.65 0 0 1 5.11-.08 11.61 11.61 0 0 1 4.51 1.31 8.15 8.15 0 0 1 3.21 3.17 10.84 10.84 0 0 1 1.21 5.49 10.26 10.26 0 0 1-.75 3.93 14 14 0 0 1-2 3.34 15.47 15.47 0 0 1-2.81 2.73 22.71 22.71 0 0 1-3.27 2l-.43.22 12.37 15.22a6 6 0 0 1-1.08.24l-1.08.13-1.06.13a5.24 5.24 0 0 1-1.05 0l-13.61-16.31v-.21l1.19-.47a27 27 0 0 0 3.56-1.71 15.48 15.48 0 0 0 3-2.26 10.39 10.39 0 0 0 2.14-2.89 8 8 0 0 0 .81-3.66c0-2.81-.87-4.81-2.59-6s-4.07-1.61-7-1.24c-.76.09-1.46.19-2.11.31s-1.42.28-2.32.5v36c-.25.06-.56.13-.92.19l-1 .15-1 .09h-.87ZM264.83 712.24c.51.08 1 .18 1.57.29a14.2 14.2 0 0 0 1.81.27c.66.06 1.41.09 2.24.1a22.16 22.16 0 0 0 2.86-.19 15.11 15.11 0 0 0 4.46-1.17 10.42 10.42 0 0 0 3.07-2 7.74 7.74 0 0 0 1.81-2.7 8.56 8.56 0 0 0 .6-3.18 8 8 0 0 0-.41-2.73 4.69 4.69 0 0 0-1.4-2 9.79 9.79 0 0 0-2.76-1.52 43.81 43.81 0 0 0-4.4-1.38 38.82 38.82 0 0 1-3.59-1.07 10.55 10.55 0 0 1-3-1.6 7.19 7.19 0 0 1-2.06-2.53 9 9 0 0 1-.75-4 10 10 0 0 1 3.16-7.46q3.15-3.09 9.2-3.83c.79-.1 1.6-.16 2.41-.19s1.56 0 2.26 0 1.35.06 1.95.13 1.07.14 1.43.21q-.1.82-.3 1.68a14.28 14.28 0 0 1-.46 1.65 22.33 22.33 0 0 0-3.32-.38 23.44 23.44 0 0 0-4 .15c-3 .36-5.13 1.24-6.43 2.62a6.94 6.94 0 0 0-1.94 4.89 4.82 4.82 0 0 0 .59 2.46 5.21 5.21 0 0 0 1.65 1.69 12 12 0 0 0 2.51 1.18c1 .33 2 .64 3.13.93 1.52.43 2.93.89 4.24 1.37a12.13 12.13 0 0 1 3.38 1.86 8 8 0 0 1 2.21 2.78 9.35 9.35 0 0 1 .81 4.13 12.68 12.68 0 0 1-1 5.12 11.84 11.84 0 0 1-2.83 4 15.15 15.15 0 0 1-4.48 2.82 22.48 22.48 0 0 1-5.94 1.51 24.87 24.87 0 0 1-5.3.19 36.54 36.54 0 0 1-3.94-.57 13.59 13.59 0 0 1 .38-1.8 17.45 17.45 0 0 1 .58-1.73ZM295.94 673.91c.21-.06.49-.12.83-.18s.7-.11 1.06-.15.65-.08 1-.1.61 0 .86 0v35.42l16.58-2a6.87 6.87 0 0 1 .08.82v1.78a7.42 7.42 0 0 1-.08.8l-20.3 2.49ZM323.21 670.57c.25-.07.55-.13.91-.2s.69-.11 1-.14l1-.1h.86v38.82c-.25.07-.54.13-.86.19s-.65.11-1 .15-.71.08-1.06.1-.62 0-.83 0ZM338.27 668.72c.25-.07.59-.14 1-.21s.77-.12 1.05-.15.63-.07 1-.1a9.18 9.18 0 0 1 1 0l18.58 30.23v-32.55c.25-.07.53-.13.84-.19l.94-.14.95-.09h.89v38.83c-.22.06-.54.13-.95.2s-.78.12-1.11.16-.63.07-1 .1-.72 0-1 0l-18.58-30v32.29c-.25.06-.53.13-.84.18s-.62.11-.94.15l-1 .09a5.79 5.79 0 0 1-.81 0ZM399.18 680c.26-.07.56-.13.92-.19s.69-.11 1-.15.65-.07 1-.09h.86v18.9a11.17 11.17 0 0 1-2.19 1.08q-1.26.48-2.7.87t-2.94.69c-1 .19-2 .35-3 .47a19.9 19.9 0 0 1-7.24-.35 13.29 13.29 0 0 1-5.77-3 14.77 14.77 0 0 1-3.81-5.69 22.76 22.76 0 0 1-1.38-8.36 27.27 27.27 0 0 1 1.35-8.83 21.66 21.66 0 0 1 3.75-6.89 19.32 19.32 0 0 1 5.67-4.69 19.62 19.62 0 0 1 7.11-2.25 28.92 28.92 0 0 1 5.67-.24c1.51.12 2.73.27 3.67.44a11.1 11.1 0 0 1-.3 1.71 16 16 0 0 1-.57 1.69 25.56 25.56 0 0 0-3.18-.5 22.73 22.73 0 0 0-5.08.17 15.09 15.09 0 0 0-5.67 1.85 14.86 14.86 0 0 0-4.45 3.92 18.59 18.59 0 0 0-2.9 5.74 24.35 24.35 0 0 0-1 7.37 19.66 19.66 0 0 0 1.13 7.07 12.06 12.06 0 0 0 3.08 4.67 10.47 10.47 0 0 0 4.56 2.41 15.24 15.24 0 0 0 5.59.28 34.22 34.22 0 0 0 4.08-.69 13.94 13.94 0 0 0 2.83-1ZM413.55 659.47l20.79-2.55c0 .21.06.47.08.77s0 .6 0 .89v.9c0 .35-.05.62-.08.84l-17.07 2.1v13.12l13.73-1.68c0 .21.06.47.08.77s0 .6 0 .89v.89c0 .34-.05.63-.08.85l-13.72 1.68v15.5l17.55-2.15a5.08 5.08 0 0 1 .08.77v1.78a5.71 5.71 0 0 1-.08.85l-21.27 2.61ZM443.14 655.84c.25-.07.58-.13 1-.2l1.05-.16 1-.1h1l18.57 30.23v-32.55c.26-.06.54-.13.84-.18s.62-.1.95-.14.6-.07.94-.09a7.12 7.12 0 0 1 .89 0v38.82a7.23 7.23 0 0 1-.94.2l-1.11.16c-.29 0-.63.07-1 .1a9.08 9.08 0 0 1-1 0l-18.57-30v32.24c-.26.07-.53.13-.84.19l-.95.14c-.36 0-.7.08-1 .1a8 8 0 0 1-.81 0ZM490.71 688.83l-.65-1.49 9.62-13.82a55.23 55.23 0 0 0 3.7-6.09 9.89 9.89 0 0 0 1.21-4.28 2.89 2.89 0 0 0-1.21-2.53A4.8 4.8 0 0 0 500 660a10.53 10.53 0 0 0-3.83 1.2 29.86 29.86 0 0 0-3.19 1.93 33 33 0 0 1-1.51-3.65 14.13 14.13 0 0 1-.76-3.9 24.18 24.18 0 0 1 4.48-2.34 23.75 23.75 0 0 1 6-1.49 18.87 18.87 0 0 1 5.1 0 10.39 10.39 0 0 1 4.08 1.47 7.72 7.72 0 0 1 2.7 3 10 10 0 0 1 1 4.64 13.93 13.93 0 0 1-.49 3.73 21.34 21.34 0 0 1-1.24 3.44 26.82 26.82 0 0 1-1.7 3.18c-.63 1-1.25 2-1.86 2.93l-3.08 4.7 9.45-1.16a18.58 18.58 0 0 1 .49 3.88 21.14 21.14 0 0 1-.49 4.22ZM534.4 647.71a12.48 12.48 0 0 1 6.26.64 10.5 10.5 0 0 1 4.38 3.32 14.62 14.62 0 0 1 2.53 5.5 31.55 31.55 0 0 1-.05 14.42 20 20 0 0 1-2.59 6 14.48 14.48 0 0 1-4.43 4.41 15.16 15.16 0 0 1-6.32 2.16 12.72 12.72 0 0 1-6.26-.61 10 10 0 0 1-4.35-3.28 15.15 15.15 0 0 1-2.54-5.41 27.74 27.74 0 0 1-.83-7.08 30 30 0 0 1 .86-7.34 20.1 20.1 0 0 1 2.59-6.12 14.4 14.4 0 0 1 10.75-6.59Zm-.11 8.17q-2.16.27-3.35 3a19.92 19.92 0 0 0-1.19 7.76q0 5 1.22 7.41c.81 1.59 1.92 2.3 3.32 2.13s2.45-1.14 3.24-2.93a19.74 19.74 0 0 0 1.19-7.71q0-5.07-1.19-7.47c-.79-1.64-1.87-2.36-3.24-2.19ZM556.05 659.63a12.22 12.22 0 0 1-1-1.5 24.6 24.6 0 0 1-.92-1.77 16.73 16.73 0 0 1-.75-1.88 12.83 12.83 0 0 1-.49-1.86l15.82-8.69 2.32-.29v27.22L578 670a17.23 17.23 0 0 1 .48 3.94 19.19 19.19 0 0 1-.48 4.16l-23.14 2.9a17.68 17.68 0 0 1-.48-4 18.81 18.81 0 0 1 .48-4.06l7-.86v-15.43ZM586.13 681.16a3.44 3.44 0 0 1-.81-1.44 8 8 0 0 1-.38-2.63 16.55 16.55 0 0 1 .16-2.34 8.49 8.49 0 0 1 .44-1.73 18.3 18.3 0 0 0 7.45-3.31 14.91 14.91 0 0 0 2.73-2.71 11.76 11.76 0 0 0 1.75-3.27l-.16-.09a6.39 6.39 0 0 1-2.19 1.67 11 11 0 0 1-3.86 1.13 12.78 12.78 0 0 1-4.35-.17 8.27 8.27 0 0 1-3.56-1.75 8.69 8.69 0 0 1-2.43-3.51 14.89 14.89 0 0 1-.89-5.51 15.55 15.55 0 0 1 1.08-5.93 14.29 14.29 0 0 1 2.94-4.58 14.73 14.73 0 0 1 4.35-3.1 17.23 17.23 0 0 1 5.29-1.51q6.81-.84 10.37 2.61t3.56 11.34a31.67 31.67 0 0 1-1.24 8.84 24.69 24.69 0 0 1-10.56 14.15 27.94 27.94 0 0 1-9.69 3.84Zm7.51-22.2a5 5 0 0 0 3.36-1.76 6 6 0 0 0 1.3-4.1 5.89 5.89 0 0 0-1.24-4.17 3.56 3.56 0 0 0-3.19-1.06 5.09 5.09 0 0 0-3.29 1.75 6.28 6.28 0 0 0-1.35 4.32c0 1.95.42 3.31 1.27 4.09a3.73 3.73 0 0 0 3.14.97ZM633.87 660.18a4.15 4.15 0 0 0 2.08 2.87 6.8 6.8 0 0 0 3.91.44 19.26 19.26 0 0 0 3.51-.81 23.38 23.38 0 0 0 3.83-1.6 14.84 14.84 0 0 1 1.33 3.18 15.13 15.13 0 0 1 .62 4 30.54 30.54 0 0 1-9.83 3 17.77 17.77 0 0 1-6.67-.26 9.71 9.71 0 0 1-7.13-6.69 18 18 0 0 1-.83-5.67 19.75 19.75 0 0 1 .86-5.89 15.45 15.45 0 0 1 2.59-5 14.47 14.47 0 0 1 4.32-3.68 15.94 15.94 0 0 1 6-1.91 12.08 12.08 0 0 1 5.1.35 9.37 9.37 0 0 1 3.81 2.2 10 10 0 0 1 2.4 3.81 14.85 14.85 0 0 1 .84 5.11 26.19 26.19 0 0 1-.13 2.64c-.1.78-.18 1.43-.25 1.94Zm4.32-11.18a4.92 4.92 0 0 0-3 1.44 5.52 5.52 0 0 0-1.46 3.53l8.64-1.06a4.7 4.7 0 0 0-1.16-3 3.39 3.39 0 0 0-3.02-.91ZM670.21 654.2l7.4-27c.82-.25 1.66-.46 2.51-.63s1.73-.32 2.67-.44c.61-.07 1.37-.12 2.27-.14s1.69 0 2.37 0L675 666.09c-.93.26-1.81.47-2.62.64s-1.59.31-2.34.4-1.46.14-2.22.16-1.66 0-2.7 0l-12.36-37.09c.61-.18 1.42-.38 2.43-.59s2-.38 2.91-.5c.76-.09 1.59-.15 2.49-.17s1.69 0 2.37 0Z"/></g></svg>