<svg xmlns="http://www.w3.org/2000/svg" viewBox="0 0 166 95"><path d="M166 68.8c-11.8-1-20.5-11.4-19.5-23.2.9-10.4 9.1-18.6 19.5-19.5V5.7c0-3.2-2.5-5.7-5.7-5.7h-48.2v8.8c0 1-.8 1.8-1.8 1.8s-1.8-.8-1.8-1.8V0H5.7C2.6 0 0 2.6 0 5.7v20.4c11.8 1 20.5 11.4 19.5 23.2-.9 10.4-9.1 18.6-19.5 19.5v20.4C0 92.4 2.6 95 5.7 95h103.8c-.5-.3-.9-.9-.9-1.5V82.9c0-1 .8-1.8 1.8-1.8s1.8.8 1.8 1.8v10.6c0 .6-.3 1.2-.9 1.5h49.1c3.2 0 5.7-2.6 5.7-5.7l-.1-20.5zm-53.9 3.5c0 1-.8 1.8-1.8 1.8s-1.8-.8-1.8-1.8V61.7c0-1 .8-1.8 1.8-1.8s1.8.8 1.8 1.8v10.6zm0-21.1c0 1-.8 1.8-1.8 1.8s-1.8-.8-1.8-1.8V40.6c0-1 .8-1.8 1.8-1.8s1.8.8 1.8 1.8v10.6zm0-21.2c0 1-.8 1.8-1.8 1.8s-1.8-.8-1.8-1.8V19.4c0-1 .8-1.8 1.8-1.8s1.8.8 1.8 1.8V30z" fill-rule="evenodd" clip-rule="evenodd" fill="#fff"/><path d="M166 89.6V68.8c-11.8-1-20.5-11.4-19.5-23.2.9-10.4 9.1-18.6 19.5-19.5V5.4c-.2-3-2.6-5.4-5.7-5.4h-48.2v95h48.2c3.1 0 5.6-2.4 5.7-5.4z" fill="#fae5e5"/><path d="M84.3 53.1v6.2c0 1.6 0 3.1-.2 4.7-.4 2.8-1.6 5.5-3.3 7.8-3.7 4.8-9.8 7.5-15.8 7.5-6.1 0-12.1-2.7-15.8-7.6-1.7-2.3-2.9-5-3.3-7.8-.1-1-.2-2.1-.2-3.1v-8.1c0-4.2 0-8.4.1-12.6 0-3.9 0-7.7.1-11.6v-5.1-.1c.1-2.6 2.3-4.8 4.9-4.7 2.6 0 4.8 2.1 4.8 4.8V32.8c.2-.3.5-.5.8-.7 1.3-.9 3-1.1 4.5-.6 1.1.4 2 1.2 2.6 2.2 1.1-1.8 3.2-2.9 5.4-2.3.9.2 1.7.8 2.4 1.4v-5.7-3.7c0-3.1 3-5.5 6.1-4.8 1.5.4 2.8 1.4 3.4 2.8.3.7.4 1.5.4 2.3V46c1.1.6 2.2 1.4 2.7 2.5.5.9.6 1.8.6 2.9-.2.5-.2 1.1-.2 1.7zM62.8 36.4c0-.6 0-1.2-.2-1.8-.5-1.2-1.6-2.2-3-2.3-1.4-.1-2.7.5-3.4 1.7-.4.7-.5 1.4-.5 2.1V48.3c0 1.1.5 2.2 1.3 2.9 1 .8 2.6 1 3.8.4 1.2-.6 2-1.8 2-3.2V46v-9.6zm7.3-3c-1-1-2.5-1.3-3.8-.8-1.2.5-2.2 1.6-2.3 2.9v13c0 .3 0 .5.1.8.3 1.3 1.3 2.4 2.7 2.7 1.3.3 2.6-.1 3.4-1-.5-.3-.9-.6-1.4-.9l-.1-.1c-.1-.1-.2-.1-.2-.2-1.3-1-2.1-2.4-2-4.1.1-1.6.9-3.1 2.3-4 .7-.4 1.5-.7 2.4-.7v-4.9c0-1-.3-2-1.1-2.7zm8.6-12.6c-1-1-2.4-1.4-3.7-1-1.3.4-2.3 1.5-2.5 2.8-.1.4-.1.9 0 1.3v2.3c0 3.2 0 6.5.1 9.7v5.2c.3.1.5.1.8.2.5.2 1 .5 1.5.9 1.6 1 3.2 2 4.9 3v-6.8-7.5-6-1.5c-.1-1-.4-1.9-1.1-2.6zm2.6 26.9c-.4-.2-.8-.5-1.2-.7-1.7-1.1-3.4-2.1-5.2-3.2l-1.5-.9c-.9-.6-2-.8-3-.4-1.3.4-2.3 1.6-2.5 2.9-.1 1.4.4 2.7 1.6 3.5h.2c2.6 1.6 5.2 3.3 7.9 4.9.5.3.4 1.3-.3 1.2h-1c-6.1 0-11.2 5.6-11.8 11.4 0 .4-.3.7-.7.7-.3 0-.7-.3-.7-.7.1-.7.2-1.5.4-2.2 1.4-5.3 6-9.9 11.5-10.5-1.2-.7-2.4-1.5-3.6-2.2-1.1 1.3-2.8 1.9-4.5 1.7-1.5-.2-2.8-1.1-3.5-2.4-.4.6-.8 1.2-1.4 1.6-1.3.9-3 1.1-4.5.6-1.4-.6-2.6-1.7-3-3.3-.2-.6-.2-1.2-.2-1.9v-5.2-4.3-.1-5.5-9.3-.1c0-1.9-1.6-3.6-3.6-3.6s-3.6 1.6-3.6 3.6v13.3c0 4.3 0 8.6-.1 12.9v11.8c0 2.1.4 4.2 1.2 6.1 2.3 5.3 7.4 9 13 10.1 5.8 1.1 12.2-.5 16.6-4.6 2-1.9 3.6-4.3 4.4-6.9.4-1.3.7-2.7.7-4.1v-1.4c0-3.2.1-6.5.1-9.7 0-1.2-.5-2.4-1.7-3.1z" fill-rule="evenodd" clip-rule="evenodd" fill="#e05e5e"/></svg>