<svg data-name="Ebene 1" xmlns="http://www.w3.org/2000/svg" viewBox="0 0 32 32"><path d="M22.89 40.77l-.11-6.57L24 26.93l-1.81 2.23 2.15-2.65.38-9.61-.44-3.9.72-4.29 1.41-2.43-.23-1-.43.35-1-.2.42.7-.42.34-1 .14V4.56l.7-.15-.7-.58V3l-1-1-3 3.66 3-.53-4.42.77-2.6 3.43-3.26 1.23 1.1.55 2.52-1.29-3.29 1.69 2.23 1.05-2.35 5-.86 3.44-6.05 7.93-5.59 7-1 2.9-5.36 5.76v2l2.54 1.32 8.74.64h6.5l1.47-1.28-5.82-2 4.35-.21-1-1 2.07-.15 1.16-.32-1.73-1.69-.53.61L14 36.93l2.6-6-5 11.59 6.4-7.41.69 3.47v2.19l2.52 4.42 4.01-.19-.44-.88.77-.56-.71-.77-1.3-.33" fill="#212121" fill-rule="evenodd"/></svg>