<svg xmlns="http://www.w3.org/2000/svg" viewBox="0 0 1024 1024"><path fill="#212121" d="M0 0h1024v1024H0z" data-name="Ebene 6"/><path d="M1008.81 512c0 274.38-222.43 496.81-496.81 496.81S15.19 786.38 15.19 512 237.62 15.19 512 15.19 1008.81 237.62 1008.81 512z" fill-rule="evenodd" fill="#ebebee" data-name="Ebene 5"/><path d="M690.14 1181.36l-2.77-172.06 32.8-190.2-47.4 58.38 56.37-69.43L739.2 556.5l-12.74-101 19.45-113.36 36.91-63.73-6-25.49-11.16 9.31L739.2 257l10.87 18.27-10.86 9.07-26.21 3.5v-54.33l18.11-4L713 214.35v-21.76l-25.5-26.16-79.5 95.84 79.51-14-115.64 20.37-68.19 89.64-85.21 32.2L447.21 405l65.87-34-85.89 44.3 58.37 27.5-61.73 129.8-23.48 92.24L242 871.44 95.71 1053.9l-25.58 75.84L-70 1280.64V1334l66.43 34.54 228.82 16.77h170.12l38.53-33.54-152.32-52.32 113.79-5.37-26-27.45 54.32-3.74 30.31-8.41-45.37-44.16-13.63 15.85 62.63-145.23 68.21-158.18L395 1226.17l166.14-192.85 18 90.68-1 57.36 65.93 115.71 107.19-4.53-11.63-22.86 20.18-14.87-18.62-20.12-34.13-8.52" fill-rule="evenodd" fill="#212121" data-name="Ebene 4"/></svg>