<svg xmlns="http://www.w3.org/2000/svg" width="711" height="658" viewBox="0 0 711 658"><path d="M711 355.5C711 551.837 551.835 711 355.5 711S0 551.837 0 355.5 159.164 0 355.5 0 711 159.163 711 355.5z" fill-rule="evenodd" fill="rgba(255,255,255,0.87)"/><path data-name="Form 3 kopieren" d="M518.19 380.755l-7.011 175.207-39.255 48.357zm-46.266 223.564L456.5 736.073l-86.919-100.217zM456.5 736.073l9.813 98.115-52.1-146.876zM381.589 649.7l25.145 126.32 7.477-88.708zm84.727 184.488l-60.284-18.221 36.2-49.669zm-59.582-58.168l35.5-9.722-28.021-78.986zm-.7 39.947l.7-39.947 35.5-9.722zm60.284 18.221l14.721 32.939-75-51.16zm-60.284-18.221l45.914 80.6 29.091-29.435zm75.005 51.16l35.049 5.607-64.14 23.828zm35.049 5.607l10.512 20.674-47.429-6.96zm-64.14 23.828l74.655-3.154-47.429-6.96zm52.988-332.907l-22.847 132.471-10.165-91.807zm-22.847 132.471L456.5 736.073l15.421-131.754zm0 0l1.928 119.841-27.517-79.894zm1.928 119.841l-17.7 18.221-9.817-98.115zm0 0l15.246 40.3-32.947-22.077zm15.246 40.3l-18.226 10.862-14.721-32.939zm-3.439-9.089l23.768 5.935-20.329 3.154zm23.768 5.935l12.968 14.016-33.3-10.862zm12.968 14.016l-14.06 10.356-2.418-4.751-16.823-16.469zm-51.523 0l18.226-10.862 16.823 16.469zM369.581 635.856L498.562 475.6l-26.638 128.719zm0 0l44.63-185.251 84.351 25zm148.609-255.1l-103.979 69.85 84.351 25zm0 0l-8.879-70.316-95.1 140.166zm-236 75.456L171.9 600.114l153.282-83.165zm132.019-5.606l-89.025 66.344-42.994-60.738zm-44.63 185.251l-44.4-118.907 89.025-66.344zm24.58 77L278.454 847.176l91.127-211.32 12.008 13.844zm-68.975-195.91l-3.114 229.077 47.509-110.17zM171.9 600.114L70.028 727.2l119.634-77.5zm17.762 49.586l85.209 63.159-42.6-77zm42.6-13.844L171.9 600.114l17.762 49.586zm0 0l92.92-118.907L171.9 600.114zm89.806 110.17l-89.806-110.17 92.92-118.907zm-47.2-33.167v47.891L189.662 649.7zm0 0l47.2 33.167-89.806-110.17zm0 47.891l-75.395 69.234-9.811-180.284zm0-47.891v47.891l3.583 86.426 43.618-101.15zm3.583 134.317l-27.573 17.849 23.99-104.275zm-78.978-17.192l51.405 35.041 23.99-104.275zm0 0L99 881.378 189.662 649.7zM70.028 727.2L99 881.378 189.662 649.7zm170.993 131.1l-111.176 6.722 69.631-35.041zm9.86 6.722l27.845 29.434-79.25 3.738 41.545-39.894zM99 881.378l-82.249 3.737L70.028 727.2zM199.476 898.2l-69.631-33.172 111.176-6.728zm0 0l-69.631-33.172-17.291 33.172h86.922zM99 881.378l13.554 16.822 17.291-33.172zm-82.249 3.737l95.8 13.082L99 881.378zm95.8 13.082l-74.771 5.139-21.03-18.221zM52.208 780.018L-45.4 885.115h62.153zm235.773 56.1l31.6 30.76-41.124-19.7zm-27.346 39.22l37.836-2.6-47.59-7.709zm17.819-28.16l20.017 25.558-47.59-7.709zm41.124 19.7l-21.107 5.858-20.017-25.558zM199.476 898.2l106.082 36.442L160.221 958zm106.082 36.442L278.726 958h-118.5zm-193-36.442l47.663 59.8 39.255-59.8h-86.922zm47.663 59.8L.864 946.321l111.69-48.121zM37.783 903.336L.864 946.321l111.69-48.121zM-45.4 885.115L.864 946.321l15.889-61.206H-45.4zm83.184 18.221l-21.03-18.221-15.89 61.206zM-45.4 885.115v37.144L.864 946.321zm554.711-574.676l13.552-78.96-102.344 96.247zm-95.1 140.166l6.308-122.879 88.792-17.287zm-132.019 5.606l138.327-128.485-6.308 122.879zm0 0l16.356-64.243 78.424-23.793zm16.356-64.243l42.994-90.406 35.43 66.613zm42.994-90.406l120.219-12.62-41.242 38.784-43.547 40.449zm181.321-70.083l25.7-44.385L456.5 251.57zm-61.1 57.463L456.5 251.57l66.36-20.091zm-120.219 12.62l-40.657-19.155L360.7 251.57zM360.7 251.57l101.059 37.372-120.219 12.62zm95.8 0h-95.8l101.059 37.372zm0 0l43.461-57.935 48.6-6.541zm61.687-60.387l26.169-21.843 4.207 17.754zm-203.361 84.036l-20.016-10.1 59.35-22.426zM360.7 251.57l-6.542-8.877-39.334 32.526zm-6.542-8.877l47.491-62.432L360.7 251.57zm47.491-62.432l80.555-14.192-121.5 85.5zm80.555-14.192l-25.7 85.5H360.7zm0 0l17.758 27.566L456.5 251.57zm-55.375 9.756l55.375-66.756v57zm55.375-66.756l17.758 18.221-17.758 38.779v-57zm17.758 18.221v66.345l-17.758-27.566zm36.625 48.535l-18.4-3.682 7.567 12.723zm-36.625-33.378l12.617 10.54-12.617 2.8v-13.34z" fill="#202020" fill-rule="evenodd"/></svg>
